<mxfile host="app.diagrams.net" agent="Mozilla/5.0 (Windows NT 10.0; Win64; x64) AppleWebKit/537.36 (KHTML, like Gecko) Chrome/131.0.0.0 Safari/537.36" version="26.0.5">
  <diagram name="Page-1" id="LPm_B5MhoY3bjAaXXA4d">
    <mxGraphModel dx="344" dy="1808" grid="1" gridSize="10" guides="1" tooltips="1" connect="1" arrows="1" fold="1" page="1" pageScale="1" pageWidth="850" pageHeight="1100" math="0" shadow="0">
      <root>
        <mxCell id="0" />
        <mxCell id="1" parent="0" />
        <mxCell id="8EwA4v_RNF3V6teVnttK-1" value="5 Image Restoration and Reconstruction" style="whiteSpace=wrap;strokeWidth=2;" vertex="1" parent="1">
          <mxGeometry x="1860" y="-29.999999999999993" width="260" height="78" as="geometry" />
        </mxCell>
        <mxCell id="8EwA4v_RNF3V6teVnttK-2" value="5.1 A Model of the Image Degradation/Restoration Process" style="whiteSpace=wrap;strokeWidth=2;" vertex="1" parent="1">
          <mxGeometry x="1496.0042449622404" y="-82.00117195923127" width="260" height="102" as="geometry" />
        </mxCell>
        <mxCell id="8EwA4v_RNF3V6teVnttK-3" value="5.2 Noise Models" style="whiteSpace=wrap;strokeWidth=2;" vertex="1" parent="1">
          <mxGeometry x="1580.0017199124231" y="70.00309576958142" width="180" height="54" as="geometry" />
        </mxCell>
        <mxCell id="8EwA4v_RNF3V6teVnttK-4" value="5.3 Restoration in the Presence of Noise Onlyâ€”Spatial Filtering" style="whiteSpace=wrap;strokeWidth=2;" vertex="1" parent="1">
          <mxGeometry x="1620.0023391336467" y="178.0011389941677" width="260" height="102" as="geometry" />
        </mxCell>
        <mxCell id="8EwA4v_RNF3V6teVnttK-5" value="5.4 Periodic Noise Reduction Using Frequency Domain Filtering" style="whiteSpace=wrap;strokeWidth=2;" vertex="1" parent="1">
          <mxGeometry x="1929.999846434304" y="177.9984518078857" width="260" height="102" as="geometry" />
        </mxCell>
        <mxCell id="8EwA4v_RNF3V6teVnttK-6" value="5.5 Linear, Position-Invariant Degradations" style="whiteSpace=wrap;strokeWidth=2;" vertex="1" parent="1">
          <mxGeometry x="2209.996093541155" y="201.99956539741265" width="260" height="78" as="geometry" />
        </mxCell>
        <mxCell id="8EwA4v_RNF3V6teVnttK-7" value="5.6 Estimating the Degradation Function" style="whiteSpace=wrap;strokeWidth=2;" vertex="1" parent="1">
          <mxGeometry x="2209.9928485416117" y="80.00411043382304" width="260" height="78" as="geometry" />
        </mxCell>
        <mxCell id="8EwA4v_RNF3V6teVnttK-8" value="5.7 Inverse Filtering" style="whiteSpace=wrap;strokeWidth=2;" vertex="1" parent="1">
          <mxGeometry x="1496.0026523591084" y="-149.9994486376844" width="204" height="54" as="geometry" />
        </mxCell>
        <mxCell id="8EwA4v_RNF3V6teVnttK-9" value="5.8 Minimum Mean Square Error Wiener Filtering" style="whiteSpace=wrap;strokeWidth=2;" vertex="1" parent="1">
          <mxGeometry x="1730.0049624309797" y="-202.00184898213334" width="260" height="78" as="geometry" />
        </mxCell>
        <mxCell id="8EwA4v_RNF3V6teVnttK-10" value="5.9 Constrained Least Squares Filtering" style="whiteSpace=wrap;strokeWidth=2;" vertex="1" parent="1">
          <mxGeometry x="2219.9969145200084" y="-280.003501246208" width="260" height="78" as="geometry" />
        </mxCell>
        <mxCell id="8EwA4v_RNF3V6teVnttK-11" value="5.10 Geometric Mean Filter" style="whiteSpace=wrap;strokeWidth=2;" vertex="1" parent="1">
          <mxGeometry x="1889.9996976099778" y="-280.0048133416145" width="257" height="54" as="geometry" />
        </mxCell>
        <mxCell id="8EwA4v_RNF3V6teVnttK-12" value="5.11 Image Reconstruction from Projections" style="whiteSpace=wrap;strokeWidth=2;" vertex="1" parent="1">
          <mxGeometry x="2260.0042449622406" y="-95.99882804076886" width="260" height="78" as="geometry" />
        </mxCell>
        <mxCell id="8EwA4v_RNF3V6teVnttK-13" value="" style="curved=1;startArrow=none;endArrow=block;exitX=0;exitY=0.57;entryX=0.5;entryY=0;rounded=0;" edge="1" parent="1" source="8EwA4v_RNF3V6teVnttK-1" target="8EwA4v_RNF3V6teVnttK-2">
          <mxGeometry relative="1" as="geometry" />
        </mxCell>
        <mxCell id="8EwA4v_RNF3V6teVnttK-14" value="" style="curved=1;startArrow=none;endArrow=block;exitX=0;exitY=0.59;entryX=0.5;entryY=0;rounded=0;" edge="1" parent="1" source="8EwA4v_RNF3V6teVnttK-1" target="8EwA4v_RNF3V6teVnttK-3">
          <mxGeometry relative="1" as="geometry" />
        </mxCell>
        <mxCell id="8EwA4v_RNF3V6teVnttK-15" value="" style="curved=1;startArrow=none;endArrow=block;exitX=0;exitY=0.61;entryX=0.5;entryY=0;rounded=0;" edge="1" parent="1" source="8EwA4v_RNF3V6teVnttK-1" target="8EwA4v_RNF3V6teVnttK-4">
          <mxGeometry relative="1" as="geometry" />
        </mxCell>
        <mxCell id="8EwA4v_RNF3V6teVnttK-16" value="" style="curved=1;startArrow=none;endArrow=block;exitX=0;exitY=0.67;entryX=0.5;entryY=0;rounded=0;" edge="1" parent="1" source="8EwA4v_RNF3V6teVnttK-1" target="8EwA4v_RNF3V6teVnttK-5">
          <mxGeometry relative="1" as="geometry" />
        </mxCell>
        <mxCell id="8EwA4v_RNF3V6teVnttK-17" value="" style="curved=1;startArrow=none;endArrow=block;exitX=0;exitY=0.84;entryX=0.5;entryY=0;rounded=0;" edge="1" parent="1" source="8EwA4v_RNF3V6teVnttK-1" target="8EwA4v_RNF3V6teVnttK-6">
          <mxGeometry relative="1" as="geometry" />
        </mxCell>
        <mxCell id="8EwA4v_RNF3V6teVnttK-18" value="" style="curved=1;startArrow=none;endArrow=block;exitX=0.5;exitY=1;entryX=0.5;entryY=0;rounded=0;" edge="1" parent="1" source="8EwA4v_RNF3V6teVnttK-1" target="8EwA4v_RNF3V6teVnttK-7">
          <mxGeometry relative="1" as="geometry" />
        </mxCell>
        <mxCell id="8EwA4v_RNF3V6teVnttK-19" value="" style="curved=1;startArrow=none;endArrow=block;exitX=1;exitY=0.88;entryX=0.5;entryY=0;rounded=0;" edge="1" parent="1" source="8EwA4v_RNF3V6teVnttK-1" target="8EwA4v_RNF3V6teVnttK-8">
          <mxGeometry relative="1" as="geometry" />
        </mxCell>
        <mxCell id="8EwA4v_RNF3V6teVnttK-20" value="" style="curved=1;startArrow=none;endArrow=block;exitX=1;exitY=0.69;entryX=0.5;entryY=0;rounded=0;" edge="1" parent="1" source="8EwA4v_RNF3V6teVnttK-1" target="8EwA4v_RNF3V6teVnttK-9">
          <mxGeometry relative="1" as="geometry" />
        </mxCell>
        <mxCell id="8EwA4v_RNF3V6teVnttK-21" value="" style="curved=1;startArrow=none;endArrow=block;exitX=1;exitY=0.62;entryX=0.5;entryY=0;rounded=0;" edge="1" parent="1" source="8EwA4v_RNF3V6teVnttK-1" target="8EwA4v_RNF3V6teVnttK-10">
          <mxGeometry relative="1" as="geometry" />
        </mxCell>
        <mxCell id="8EwA4v_RNF3V6teVnttK-22" value="" style="curved=1;startArrow=none;endArrow=block;exitX=1;exitY=0.59;entryX=0.5;entryY=0;rounded=0;" edge="1" parent="1" source="8EwA4v_RNF3V6teVnttK-1" target="8EwA4v_RNF3V6teVnttK-11">
          <mxGeometry relative="1" as="geometry" />
        </mxCell>
        <mxCell id="8EwA4v_RNF3V6teVnttK-23" value="" style="curved=1;startArrow=none;endArrow=block;exitX=1;exitY=0.57;entryX=0.5;entryY=0;rounded=0;" edge="1" parent="1" source="8EwA4v_RNF3V6teVnttK-1" target="8EwA4v_RNF3V6teVnttK-12">
          <mxGeometry relative="1" as="geometry" />
        </mxCell>
      </root>
    </mxGraphModel>
  </diagram>
</mxfile>
